<?xml version="1.0" encoding="iso-8859-1"?>
<!-- Generator: Adobe Illustrator 19.0.0, SVG Export Plug-In . SVG Version: 6.00 Build 0)  -->
<svg xmlns="http://www.w3.org/2000/svg" xmlns:xlink="http://www.w3.org/1999/xlink" version="1.1" id="Layer_1" x="0px" y="0px" viewBox="0 0 496 496" style="enable-background:new 0 0 496 496;" xml:space="preserve" width="512px" height="512px">
<g>
	<g>
		<g>
			<path d="M456,368h-36.896C441.384,352.232,456,326.312,456,297V160h-21.168l6.64-6.64c14.624,5.744,31.488,2.464,42.816-8.872     c15.592-15.6,15.592-40.976,0-56.568c-8.904-8.912-21.712-13.056-33.952-11.32c1.704-12.032-2.064-24.696-11.296-33.936     c-15.6-15.6-40.984-15.592-56.568,0C371.136,54,367.856,70.864,373.6,85.48l-51.272,51.28L256,160.416V160     c-116.416,0-211.568,92.592-215.8,208H40c-22.056,0-40,17.944-40,40c0,22.056,17.944,40,40,40h44.248l40,48h247.504l40-48H456     c22.056,0,40-17.944,40-40C496,385.944,478.056,368,456,368z M440,176v121c0,39.152-31.848,71-71,71h-63.28     c9.456-5.672,18.272-12.768,25.984-21.424c8.696-9.768,15.712-22.008,20.832-36.384l37.648-105.544L418.832,176H440z      M393.288,88.4l-3.136-5.336c-5.552-9.44-4.072-21.392,3.616-29.08c9.352-9.344,24.576-9.352,33.944,0     c9.352,9.36,9.352,24.584,0,33.944l11.312,11.312c9.064-9.064,24.872-9.064,33.936,0c9.36,9.36,9.36,24.584,0,33.944     c-7.68,7.68-19.632,9.176-29.088,3.616l-5.336-3.144l-55.288,55.296l-22.624-22.632L338,143.688L393.288,88.4z M324.616,152.92     l24.704,24.712l24.704,24.704l-36.552,102.48c-4.424,12.424-10.384,22.896-17.704,31.112     c-34.144,38.296-92.304,42.896-129.696,10.24c-1.64-1.424-3.232-2.92-4.792-4.48l-0.008-0.008     c-1.56-1.56-3.064-3.168-4.496-4.816c-32.648-37.376-28.056-95.552,10.24-129.68c8.208-7.32,18.688-13.28,31.128-17.712     L324.616,152.92z M192.088,186.528c-4.184,2.704-8.168,5.56-11.712,8.72c-44.824,39.936-50.048,108.192-11.656,152.144     c1.664,1.912,3.416,3.776,5.232,5.6c1.824,1.832,3.696,3.576,5.6,5.24c4.224,3.688,8.704,6.888,13.328,9.776H56.16     C59.496,283.552,115.472,212.44,192.088,186.528z M456,432h-96v16h30.92l-26.664,32H131.752l-26.664-32H344v-16H40     c-13.232,0-24-10.768-24-24s10.768-24,24-24h329h87c13.232,0,24,10.768,24,24S469.232,432,456,432z" fill="#FFFFFF"/>
			<rect x="104" width="16" height="16" fill="#FFFFFF"/>
			<path d="M72,83.528c0-3.448,2.192-6.496,5.472-7.592l26.128-8.704c9.808-3.272,16.4-12.416,16.4-22.76V32h-16v12.472     c0,3.448-2.192,6.496-5.472,7.592L72.4,60.768C62.592,64.04,56,73.184,56,83.528V128h16V83.528z" fill="#FFFFFF"/>
			<path d="M152,83.528c0-3.448,2.192-6.496,5.472-7.592l26.128-8.704c9.808-3.272,16.4-12.416,16.4-22.76V0h-16v44.472     c0,3.448-2.192,6.496-5.472,7.592L152.4,60.768c-9.808,3.272-16.4,12.416-16.4,22.76V128h16V83.528z" fill="#FFFFFF"/>
			<path d="M232,83.528c0-3.448,2.192-6.496,5.472-7.592l26.128-8.704c9.808-3.272,16.4-12.416,16.4-22.76V0h-16v44.472     c0,3.448-2.192,6.496-5.472,7.592L232.4,60.768c-9.808,3.272-16.4,12.416-16.4,22.76V96h16V83.528z" fill="#FFFFFF"/>
			<rect x="216" y="112" width="16" height="16" fill="#FFFFFF"/>
			<path d="M307.824,325.28c4.344-4.872,8.168-10.912,11.384-17.968l-14.56-6.624c-2.536,5.584-5.488,10.272-8.768,13.944     C283.776,328.208,266.496,336,248.464,336c-9.76,0-24.16-2.416-37.328-13.928L200.6,334.128     C217.52,348.896,235.968,352,248.464,352C271.056,352,292.688,342.256,307.824,325.28z" fill="#FFFFFF"/>
			
				<rect x="312.826" y="271.501" transform="matrix(0.9418 0.3361 -0.3361 0.9418 112.774 -91.5419)" width="15.992" height="16.992" fill="#FFFFFF"/>
		</g>
	</g>
</g>
<g>
</g>
<g>
</g>
<g>
</g>
<g>
</g>
<g>
</g>
<g>
</g>
<g>
</g>
<g>
</g>
<g>
</g>
<g>
</g>
<g>
</g>
<g>
</g>
<g>
</g>
<g>
</g>
<g>
</g>
</svg>
