<?xml version="1.0" encoding="iso-8859-1"?>
<!-- Generator: Adobe Illustrator 19.0.0, SVG Export Plug-In . SVG Version: 6.00 Build 0)  -->
<svg xmlns="http://www.w3.org/2000/svg" xmlns:xlink="http://www.w3.org/1999/xlink" version="1.1" id="Layer_1" x="0px" y="0px" viewBox="0 0 496 496" style="enable-background:new 0 0 496 496;" xml:space="preserve" width="512px" height="512px">
<g>
	<g>
		<g>
			<path d="M464,64V0H256h-16H32v64H0v368h176.448C180.44,467.952,211,496,248,496s67.56-28.048,71.552-64H496V64H464z M256,16h192     v368H256V16z M248,400c13.232,0,24,10.768,24,24s-10.768,24-24,24s-24-10.768-24-24S234.768,400,248,400z M48,16h192v368H48V16z      M480,416H304v8c0,30.88-25.128,56-56,56s-56-25.12-56-56v-8H16V80h16v320h184.208c-5.08,6.704-8.208,14.96-8.208,24     c0,22.056,17.944,40,40,40c22.056,0,40-17.944,40-40c0-9.04-3.128-17.296-8.208-24H464V80h16V416z" fill="#FFFFFF"/>
			<path d="M296,216c0,28.152,20.912,51.456,48,55.36V328h-28c-11.032,0-20,8.976-20,20s8.968,20,20,20h72c11.032,0,20-8.976,20-20     s-8.968-20-20-20h-28v-56.64c27.088-3.904,48-27.208,48-55.36v-56H296V216z M388,344c2.2,0,4,1.792,4,4s-1.8,4-4,4h-72     c-2.2,0-4-1.792-4-4s1.8-4,4-4H388z M312,208h48v-16h-48v-16h80v16h-16v16h16v8c0,22.056-17.944,40-40,40     c-22.056,0-40-17.944-40-40V208z" fill="#FFFFFF"/>
			<path d="M152,256.64V256c0-17.648-14.352-32-32-32v16c8.824,0,16,7.176,16,16v0.64c-27.088,3.904-48,27.208-48,55.36     c0,30.88,25.128,56,56,56s56-25.12,56-56C200,283.848,179.088,260.544,152,256.64z M144,352c-22.056,0-40-17.944-40-40     c0-19.312,13.768-35.472,32-39.192V296h16v-23.192c18.232,3.72,32,19.872,32,39.192C184,334.056,166.056,352,144,352z" fill="#FFFFFF"/>
			<rect x="64" y="32" width="160" height="16" fill="#FFFFFF"/>
			<rect x="96" y="64" width="128" height="16" fill="#FFFFFF"/>
			<rect x="64" y="64" width="16" height="16" fill="#FFFFFF"/>
			<rect x="64" y="96" width="160" height="16" fill="#FFFFFF"/>
			<rect x="96" y="128" width="128" height="16" fill="#FFFFFF"/>
			<rect x="64" y="128" width="16" height="16" fill="#FFFFFF"/>
			<rect x="64" y="160" width="160" height="16" fill="#FFFFFF"/>
			<rect x="96" y="192" width="128" height="16" fill="#FFFFFF"/>
			<rect x="64" y="192" width="16" height="16" fill="#FFFFFF"/>
			<rect x="272" y="32" width="128" height="16" fill="#FFFFFF"/>
			<rect x="416" y="32" width="16" height="16" fill="#FFFFFF"/>
			<rect x="272" y="96" width="128" height="16" fill="#FFFFFF"/>
			<rect x="416" y="96" width="16" height="16" fill="#FFFFFF"/>
			<rect x="272" y="64" width="160" height="16" fill="#FFFFFF"/>
			<rect x="272" y="128" width="160" height="16" fill="#FFFFFF"/>
		</g>
	</g>
</g>
<g>
</g>
<g>
</g>
<g>
</g>
<g>
</g>
<g>
</g>
<g>
</g>
<g>
</g>
<g>
</g>
<g>
</g>
<g>
</g>
<g>
</g>
<g>
</g>
<g>
</g>
<g>
</g>
<g>
</g>
</svg>
